<?xml version="1.0"?>
<svg width="350" height="359" xmlns="http://www.w3.org/2000/svg" xmlns:svg="http://www.w3.org/2000/svg">

 <g>
  <title>Layer 1</title>
  <path fill="#ffca28" id="svg_1" d="m297.69,147.804c-47.642,-5.459 -97.763,27.791 -107.192,94.289c-0.329,2.318 -0.605,4.685 -0.824,7.076l-2.81,0c4.056,-45.102 22.727,-76.399 33.905,-97.214c14.49,-26.98 2.729,-53.559 -2.997,-65.452c-6.496,-13.49 -35.924,-68.017 -43.418,-86.503c-7.494,18.486 -36.702,73.013 -43.198,86.503c-5.728,11.893 -17.488,38.472 -2.998,65.452c11.103,20.673 29.87,52.316 34.226,97.214l-3.208,0c-0.219,-2.392 -0.495,-4.758 -0.824,-7.076c-9.43,-66.499 -59.551,-99.748 -107.192,-94.289c-53.284,6.105 -81.882,90.319 0.496,110.666c-13.399,-24.813 7.443,-69.477 55.583,-44.167c15.656,8.232 26.561,21.383 31.072,34.866l-8.065,0c-7.608,0 -13.776,4.469 -13.776,9.983c0,5.514 6.168,9.983 13.776,9.983l9.817,0c-0.803,4.348 -2.456,8.464 -5.034,12.162c-11.416,16.377 -49.649,7.444 -28.31,-28.286c-36.065,-4.747 -45.649,29.279 -35.228,47.641c11.453,23.411 61.479,30.428 80.41,-2.978c4.54,-8.012 6.819,-18.047 7.555,-28.539l3.864,0c-0.033,7.932 -0.53,16.224 -1.59,24.887c-12.647,8.146 -7.717,25.725 -23.735,36.234c10.062,0.265 18.271,-1.708 20.92,-5.415c0,10.75 9.617,19.812 15.886,32.858c5.824,-13.119 15.208,-24.094 15.208,-32.858c2.648,3.707 10.857,5.68 20.92,5.415c-14.687,-9.01 -8.898,-25.516 -23.261,-37.306c-1.015,-8.293 -1.508,-16.22 -1.589,-23.815l3.312,0c0.735,10.492 3.016,20.527 7.555,28.539c18.931,33.405 68.957,26.389 80.41,2.978c10.422,-18.361 0.838,-52.388 -35.228,-47.641c21.34,35.73 -16.894,44.663 -28.31,28.286c-2.577,-3.698 -4.23,-7.814 -5.033,-12.162l10.572,0c7.608,0 13.776,-4.47 13.776,-9.983c0,-5.515 -6.168,-9.983 -13.776,-9.983l-8.821,0c4.512,-13.483 15.416,-26.634 31.072,-34.866c48.14,-25.31 68.982,19.354 55.583,44.167c82.382,-20.346 53.783,-104.56 0.499,-110.666z"/>
 </g>
</svg>